<?xml version="1.0" encoding="UTF-8"?>
<svg xmlns="http://www.w3.org/2000/svg" xmlns:xlink="http://www.w3.org/1999/xlink" width="128px" height="128px" viewBox="0 0 128 128" version="1.1">
<g id="surface1">
<path style=" stroke:none;fill-rule:nonzero;fill:rgb(12.156863%,63.137255%,64.705882%);fill-opacity:1;" d="M 10.667969 26.667969 C 4.777344 26.667969 0 31.464844 0 37.332031 L 0 112 C 0 117.867188 4.777344 122.667969 10.667969 122.667969 L 117.332031 122.667969 C 123.226562 122.667969 128 117.867188 128 112 L 128 37.332031 C 128 31.464844 123.226562 26.667969 117.332031 26.667969 Z M 10.667969 26.667969 "/>
<path style=" stroke:none;fill-rule:nonzero;fill:rgb(14.901961%,74.901961%,85.490196%);fill-opacity:1;" d="M 16 5.332031 C 10.109375 5.332031 5.332031 10.132812 5.332031 16 L 5.332031 90.667969 C 5.332031 96.535156 10.109375 101.332031 16 101.332031 L 112 101.332031 C 117.894531 101.332031 122.667969 96.535156 122.667969 90.667969 L 122.667969 26.667969 C 122.667969 20.800781 117.894531 16 112 16 L 69.332031 16 L 53.332031 5.332031 Z M 16 5.332031 "/>
<path style=" stroke:none;fill-rule:nonzero;fill:rgb(76.862745%,83.921569%,89.411765%);fill-opacity:1;" d="M 122.667969 74.667969 L 122.667969 32 C 122.667969 26.132812 117.894531 21.332031 112 21.332031 L 16 21.332031 C 10.109375 21.332031 5.332031 26.132812 5.332031 32 L 5.332031 74.667969 Z M 122.667969 74.667969 "/>
<path style=" stroke:none;fill-rule:nonzero;fill:rgb(14.509804%,72.941176%,83.137255%);fill-opacity:1;" d="M 10.667969 26.667969 C 4.777344 26.667969 0 31.464844 0 37.332031 L 0 106.667969 C 0 112.535156 4.777344 117.332031 10.667969 117.332031 L 117.332031 117.332031 C 123.226562 117.332031 128 112.535156 128 106.667969 L 128 37.332031 C 128 31.464844 123.226562 26.667969 117.332031 26.667969 Z M 10.667969 26.667969 "/>
<path style=" stroke:none;fill-rule:nonzero;fill:rgb(6.666667%,6.666667%,6.27451%);fill-opacity:1;" d="M 90.667969 41.332031 L 90.667969 88 C 90.667969 89.386719 90.191406 90.625 89.246094 91.707031 C 88.304688 92.789062 87.109375 93.636719 85.664062 94.25 C 84.222656 94.832031 82.777344 95.28125 81.332031 95.585938 C 79.914062 95.863281 78.582031 96 77.332031 96 C 76.085938 96 74.734375 95.863281 73.289062 95.585938 C 71.878906 95.28125 70.441406 94.832031 69.003906 94.25 C 67.558594 93.636719 66.363281 92.789062 65.417969 91.707031 C 64.476562 90.625 64 89.386719 64 88 C 64 86.613281 64.476562 85.375 65.417969 84.292969 C 66.363281 83.210938 67.558594 82.375 69.003906 81.792969 C 70.441406 81.179688 71.878906 80.734375 73.289062 80.457031 C 74.734375 80.15625 76.085938 80 77.332031 80 C 80.25 80 82.917969 80.542969 85.332031 81.625 L 85.332031 59.246094 L 53.332031 69.125 L 53.332031 98.667969 C 53.332031 100.054688 52.863281 101.289062 51.917969 102.375 C 50.972656 103.457031 49.777344 104.292969 48.332031 104.875 C 46.890625 105.488281 45.445312 105.929688 44 106.207031 C 42.582031 106.511719 41.25 106.667969 40 106.667969 C 38.75 106.667969 37.402344 106.511719 35.957031 106.207031 C 34.542969 105.929688 33.109375 105.488281 31.667969 104.875 C 30.222656 104.292969 29.027344 103.457031 28.082031 102.375 C 27.136719 101.289062 26.667969 100.054688 26.667969 98.667969 C 26.667969 97.28125 27.136719 96.042969 28.082031 94.960938 C 29.027344 93.878906 30.222656 93.039062 31.667969 92.457031 C 33.109375 91.84375 34.542969 91.402344 35.957031 91.125 C 37.402344 90.820312 38.75 90.667969 40 90.667969 C 42.917969 90.667969 45.582031 91.210938 48 92.292969 L 48 52 C 48 51.140625 48.265625 50.359375 48.792969 49.667969 C 49.320312 48.945312 50 48.445312 50.832031 48.167969 L 85.5 37.5 C 85.835938 37.390625 86.222656 37.332031 86.667969 37.332031 C 87.777344 37.332031 88.71875 37.722656 89.5 38.5 C 90.277344 39.277344 90.667969 40.222656 90.667969 41.332031 "/>
</g>
</svg>
